<svg width="48" height="48" viewBox="0 0 48 48" fill="none" xmlns="http://www.w3.org/2000/svg">
<path d="M0 24C0 19.6535 3.59055 16.063 7.93701 16.063H39.874C44.2205 16.063 47.811 19.6535 47.811 24C47.811 28.3465 44.2205 31.937 39.874 31.937H7.93701C3.59055 31.937 0 28.3465 0 24Z" fill="#A0752B"/>
<path d="M24 0C28.3465 0 31.937 3.59055 31.937 7.93701V39.874C31.937 44.2205 28.3465 47.811 24 47.811C19.6535 47.811 16.063 44.2205 16.063 39.874V7.93701C16.063 3.59055 19.6535 0 24 0Z" fill="#A0752B"/>
<path d="M6.99194 41.0077C3.77934 37.7951 3.77934 32.8817 6.99194 29.6691L29.6691 6.99197C32.8817 3.77937 37.7951 3.77937 41.0077 6.99197C44.2203 10.2046 44.2203 15.118 41.0077 18.3306L18.3305 41.0077C15.1179 44.0313 10.2045 44.0313 6.99194 41.0077Z" fill="#FBC72D"/>
<path d="M6.99211 6.99197C10.2047 3.77937 15.1181 3.77937 18.3307 6.99197L41.0079 29.6691C44.2205 32.8817 44.2205 37.7951 41.0079 41.0077C37.7953 44.2203 32.8819 44.2203 29.6693 41.0077L6.99211 18.3305C3.96849 15.118 3.96849 10.2046 6.99211 6.99197Z" fill="#FBC72D"/>
<path d="M29.4804 29.48C26.4568 32.5036 21.5434 32.5036 18.5198 29.48C15.4961 26.4564 15.4961 21.543 18.5198 18.5194C21.5434 15.4957 26.4568 15.4957 29.4804 18.5194C32.504 21.543 32.504 26.4564 29.4804 29.48Z" fill="#A0752B"/>
<path d="M23.244 28.5351C23.0551 29.1021 22.6771 29.48 22.1102 29.291C21.5432 29.1021 21.1653 28.7241 21.3543 28.1572C21.5432 27.5902 21.9212 27.2123 22.4881 27.4013C23.0551 27.4013 23.244 27.9682 23.244 28.5351Z" fill="#FBC72D"/>
<path d="M20.7875 27.7791C20.7875 28.1571 20.4096 28.3461 20.2206 28.1571C19.8427 28.1571 19.6537 27.7791 19.8427 27.5902C19.8427 27.2122 20.2206 27.0232 20.4096 27.2122C20.7875 27.2122 20.9765 27.5902 20.7875 27.7791Z" fill="#FBC72D"/>
<path d="M21.7322 25.3232C21.5432 26.2681 20.5983 26.835 19.8424 26.646C18.8976 26.4571 18.3306 25.5122 18.5196 24.5673C18.7086 23.6224 19.6535 23.0555 20.4094 23.2445C21.3543 23.6224 21.9212 24.3783 21.7322 25.3232Z" fill="#FBC72D"/>
</svg>
