<svg width="48" height="48" viewBox="0 0 48 48" fill="none" xmlns="http://www.w3.org/2000/svg">
<g clip-path="url(#clip0)">
<path d="M13.8413 17.432C14.4318 17.5796 15.3174 18.3176 16.3506 16.9892C16.941 16.2512 17.2362 15.6608 16.6458 14.7752C16.0554 13.8896 16.203 13.4468 17.2362 13.004C17.8266 12.7088 18.417 12.4136 19.0074 12.1184C20.1882 11.528 21.0738 11.0852 21.5166 12.8564C21.6642 13.742 22.4022 13.5944 23.1402 13.4468C23.8783 13.4468 24.7639 13.4468 24.9115 12.4136C25.0591 10.9376 25.9447 10.9376 26.9779 11.528C27.5683 11.8232 28.1587 11.9708 28.6015 12.1184C29.9299 12.4136 30.5203 13.004 29.6347 14.3324C29.1919 15.0704 29.6347 15.5132 30.2251 15.956C30.8155 16.3988 31.2583 17.1368 32.1439 16.5464C33.4723 15.6608 34.0628 16.2512 34.5056 17.432C34.6532 17.8748 34.9484 18.4652 35.2436 18.9081C36.1292 20.0889 35.834 20.8269 34.5056 21.2697C33.4723 21.5649 33.7676 22.4505 33.7676 23.1885C33.7676 23.9265 33.9151 24.5169 34.6532 24.6645C36.1292 24.9597 36.2768 25.6977 35.6864 26.8785C35.3912 27.4689 35.2436 27.9117 35.096 28.5021C34.8008 29.683 34.358 30.2734 33.0295 29.5354C32.1439 28.9449 31.7011 29.683 31.1107 30.1258C30.5203 30.7162 30.2251 31.3066 30.8155 32.1922C31.5535 33.2254 31.2583 33.8158 30.0775 34.111C29.4871 34.2586 28.8967 34.5538 28.3063 34.9966C27.2731 35.7346 26.3875 35.8822 25.9447 34.2586C25.6495 33.0778 24.6163 33.5206 23.8783 33.5206C22.9926 33.373 22.6974 33.9634 22.5498 34.5538C22.2546 35.8822 21.6642 36.0298 20.4834 35.587C19.893 35.2918 19.4502 35.1442 18.8598 34.9966C17.5314 34.7014 16.941 34.111 17.679 32.9302C18.1218 32.0446 17.5314 31.6018 16.941 31.159C16.3506 30.7162 15.9078 30.1258 15.1698 30.7162C13.989 31.6018 13.2509 31.159 12.8081 29.8306C12.8081 29.0926 12.5129 28.5021 12.2177 28.0593C11.6273 27.0261 11.6273 26.4357 12.8081 26.1405C13.8413 25.8453 13.8413 25.1073 13.8413 24.2217C13.8413 23.3361 13.5461 22.7457 12.6605 22.5981C11.3321 22.3029 11.3321 21.7125 11.7749 20.6793C12.2177 19.7937 12.3653 18.9081 12.6605 18.0224C12.8081 17.5796 12.9557 17.2844 13.8413 17.432ZM19.0074 23.6313C19.0074 26.2881 21.0738 28.3545 23.7306 28.3545C26.3875 28.3545 28.4539 26.2881 28.4539 23.6313C28.4539 20.9745 26.5351 18.9081 23.7306 18.9081C21.0738 18.9081 19.0074 20.9745 19.0074 23.6313Z" fill="#ED2224"/>
<path d="M23.2878 6.50923C15.4649 6.50923 8.23247 11.9705 6.01845 19.4982C6.16605 19.4982 6.16605 19.4982 6.31365 19.4982C6.46125 19.4982 6.75646 19.4982 6.90406 19.3506C7.05166 19.3506 7.05166 19.3506 7.19926 19.3506H7.34686C7.78967 19.3506 8.08487 19.203 8.52768 19.203C9.26568 19.0554 9.85609 19.3506 10.1513 20.0886C10.2989 20.679 9.85609 21.5646 9.26568 21.7122C8.23247 21.8598 7.19926 22.0074 6.16605 22.155C5.72325 22.155 5.28044 22.3026 4.69004 22.3026C3.95203 22.3026 3.36162 22.155 2.91882 21.5646C2.62362 21.2694 2.47601 20.8266 2.32841 20.3838C2.18081 19.941 1.88561 19.4982 1.73801 19.0554C1.2952 18.1697 1 17.1365 1 16.1033C1 15.3653 1.59041 14.7749 2.32841 14.7749C3.06642 14.7749 3.65683 15.3653 3.65683 16.1033C3.65683 16.2509 3.65683 16.3985 3.65683 16.6937V16.8413C3.65683 16.9889 3.65683 16.9889 3.65683 17.1365C3.65683 17.2841 3.80443 17.4317 3.80443 17.5793V17.7269C6.75646 9.60886 14.7269 4 23.2878 4C24.9114 4 24.9114 6.50923 23.2878 6.50923Z" fill="#C52026"/>
<path d="M23.8782 41.4909C31.7011 41.4909 38.9335 36.0296 41.1476 28.5019C40.9999 28.5019 40.9999 28.5019 40.8523 28.5019C40.7047 28.5019 40.4095 28.5019 40.2619 28.6495C40.1143 28.6495 40.1143 28.6495 39.9667 28.6495H39.8191C39.3763 28.6495 39.0811 28.7971 38.6383 28.7971C37.9003 28.9447 37.3099 28.6495 37.0147 27.9115C36.8671 27.3211 37.3099 26.4355 37.9003 26.2879C38.9335 26.1403 39.9667 25.9927 40.9999 25.8451C41.4428 25.8451 41.8856 25.6975 42.476 25.6975C43.214 25.6975 43.8044 25.8451 44.2472 26.4355C44.5424 26.7307 44.69 27.1735 44.8376 27.6163C44.9852 28.0591 45.2804 28.5019 45.428 28.9447C45.8708 29.8304 46.166 30.8636 46.166 31.8968C46.166 32.6348 45.5756 33.2252 44.8376 33.2252C44.0996 33.2252 43.5092 32.6348 43.5092 31.8968C43.5092 31.7492 43.5092 31.6016 43.5092 31.3064V31.1588C43.5092 31.0112 43.5092 31.0112 43.5092 30.8636C43.5092 30.716 43.3616 30.5684 43.3616 30.4208V30.2732C40.5571 38.2436 32.5867 44.0001 24.0258 44.0001C22.2546 44.0001 22.2546 41.4909 23.8782 41.4909Z" fill="#C52026"/>
</g>
<defs>
<clipPath id="clip0">
<rect width="45.166" height="40" fill="white" transform="translate(1 4)"/>
</clipPath>
</defs>
</svg>
