<svg width="48" height="48" viewBox="0 0 48 48" fill="none" xmlns="http://www.w3.org/2000/svg">
<g clip-path="url(#clip0)">
<path d="M36.963 32.1481C39.037 32.2963 40.963 32.8889 43.037 33.9259C41.1111 35.8519 39.1852 37.4815 36.5185 38.2222C34.8889 38.6667 33.4074 38.5185 32.0741 37.4815C31.4815 36.8889 31.037 36.8889 30.2963 37.3333C28.6667 38.3704 26.8889 38.963 24.963 39.8519C25.2593 40 25.4074 40.2963 25.7037 40.4444C25.2593 40.7407 24.8148 41.1852 24.3704 41.7778C22.5926 41.1852 20.6667 41.037 18.7407 41.1852C18.5926 40.4444 18.1481 39.8519 17.5556 39.5556C17.8519 39.5556 18.2963 39.4074 18.5926 39.2593C16.8148 37.7778 14.8889 36.4444 13.4074 34.8148C13.1111 34.5185 12.8148 34.8148 12.5185 34.963C10.5926 35.8519 8.81482 35.4074 7.18519 34.2222C5.25926 32.8889 3.92593 30.963 2.74074 28.8889C4.96296 28.2963 7.18519 28.1481 9.40741 28.8889C9.11111 26.5185 9.11111 26.5185 6.88889 25.9259C5.11111 25.4815 4.07407 24 3.33333 22.5185C2.59259 21.3333 2.14815 20.1481 2 18.8148C4.07407 18.8148 5.7037 19.2593 7.62963 20.5926C7.62963 18.8148 8.51852 17.3333 6.44444 16C4.81481 14.963 4.81481 11.8519 5.7037 8.88889C7.03704 9.48148 7.92593 10.3704 8.96296 11.5556C9.40741 10.6667 9.85185 9.77778 9.85185 8.88889C10.1481 6.51852 12.8148 4.14815 15.037 4C15.6296 4 15.7778 4.14815 15.7778 4.59259C15.6296 6.66667 15.1852 8.74074 13.1111 9.62963C11.037 10.6667 10.8889 12.2963 10.2963 14.2222C11.9259 13.9259 13.1111 12.5926 14.5926 12.4444C15.1852 16.4444 14 18.8148 10.1481 20.5926C9.7037 20.8889 9.40741 21.037 9.55556 21.6296C9.7037 22.8148 10 24 10.1481 25.4815C10.7407 24.4444 11.1852 23.7037 11.7778 22.963C12.2222 22.2222 12.6667 21.4815 13.5556 21.037C15.3333 24.2963 16.0741 27.4074 13.4074 30.6667C12.3704 32 14.1481 32.4444 14.8889 33.7778C15.3333 32 15.3333 30.6667 15.9259 29.3333C16.2222 28.7407 16.3704 28.4444 16.963 29.037C19.4815 30.963 21.1111 33.3333 20.3704 36.5926C20.0741 38.2222 20.963 38.3704 22 38.5185C23.1852 38.6667 23.3333 38.0741 23.3333 36.8889C23.1852 33.1852 25.5556 31.2593 28.6667 29.6296C29.2593 31.7037 28.963 33.6296 28.6667 35.8519C29.8519 35.4074 30.7407 34.8148 31.6296 34.0741C32.0741 33.7778 32.2222 33.4815 31.9259 32.8889C30 29.1852 31.6296 26.3704 34.1482 23.5556C35.1852 25.037 35.6296 26.8148 36.2222 28.8889C36.8148 27.5556 37.4074 26.3704 37.8519 25.3333C38 24.8889 38 24.4444 37.4074 24.1481C34 21.7778 34.1481 18.6667 35.037 15.1111C36.5185 15.8519 37.4074 17.037 38.7407 17.9259C38.7407 16.1481 39.4815 14.5185 37.5556 13.037C35.7778 11.7037 35.7778 9.48148 36.0741 7.40741C36.2222 6.51852 36.5185 6.66667 37.1111 7.11111C39.1852 8.59259 41.2593 10.2222 40.6667 13.3333C40.5185 14.0741 40.8148 14.8148 40.963 15.7037C42.2963 15.1111 43.3333 14.0741 44.6667 14.0741C45.1111 17.4815 43.9259 19.5556 41.2593 21.1852C39.9259 21.9259 40.5185 23.4074 39.9259 24.7407C42 24.2963 43.7778 23.8519 45.7037 24.4444C44.6667 27.8519 41.8519 29.9259 38.4444 29.7778C36.963 29.6296 37.1111 31.1111 36.3704 31.8519C36.3704 32 36.3704 32.1481 36.2222 32.2963C36.6667 32.1481 36.8148 32.1481 36.963 32.1481Z" fill="#2C59A9"/>
<path d="M9.70374 34.3702C10.1947 34.3702 10.5926 33.9723 10.5926 33.4814C10.5926 32.9904 10.1947 32.5925 9.70374 32.5925C9.21282 32.5925 8.81485 32.9904 8.81485 33.4814C8.81485 33.9723 9.21282 34.3702 9.70374 34.3702Z" fill="#203C74"/>
<path d="M18.5927 36.1481C19.0836 36.1481 19.4815 35.7502 19.4815 35.2592C19.4815 34.7683 19.0836 34.3704 18.5927 34.3704C18.1017 34.3704 17.7038 34.7683 17.7038 35.2592C17.7038 35.7502 18.1017 36.1481 18.5927 36.1481Z" fill="#203C74"/>
<path d="M41.9999 19.4075C42.4909 19.4075 42.8888 19.0095 42.8888 18.5186C42.8888 18.0277 42.4909 17.6297 41.9999 17.6297C41.509 17.6297 41.1111 18.0277 41.1111 18.5186C41.1111 19.0095 41.509 19.4075 41.9999 19.4075Z" fill="#203C74"/>
<path d="M33.2592 31.7037C33.7502 31.7037 34.1481 31.3057 34.1481 30.8148C34.1481 30.3239 33.7502 29.9259 33.2592 29.9259C32.7683 29.9259 32.3704 30.3239 32.3704 30.8148C32.3704 31.3057 32.7683 31.7037 33.2592 31.7037Z" fill="#203C74"/>
<path d="M7.62973 15.4074C8.12065 15.4074 8.51862 15.0094 8.51862 14.5185C8.51862 14.0276 8.12065 13.6296 7.62973 13.6296C7.13881 13.6296 6.74084 14.0276 6.74084 14.5185C6.74084 15.0094 7.13881 15.4074 7.62973 15.4074Z" fill="#203C74"/>
<path d="M12.3705 9.03696C12.6159 9.03696 12.8149 8.83798 12.8149 8.59252C12.8149 8.34706 12.6159 8.14807 12.3705 8.14807C12.125 8.14807 11.926 8.34706 11.926 8.59252C11.926 8.83798 12.125 9.03696 12.3705 9.03696Z" fill="#203C74"/>
<path d="M18.8889 33.7778C19.1344 33.7778 19.3334 33.5788 19.3334 33.3334C19.3334 33.0879 19.1344 32.8889 18.8889 32.8889C18.6435 32.8889 18.4445 33.0879 18.4445 33.3334C18.4445 33.5788 18.6435 33.7778 18.8889 33.7778Z" fill="#203C74"/>
<path d="M38.2964 12.2963C38.5419 12.2963 38.7408 12.0973 38.7408 11.8519C38.7408 11.6064 38.5419 11.4074 38.2964 11.4074C38.0509 11.4074 37.852 11.6064 37.852 11.8519C37.852 12.0973 38.0509 12.2963 38.2964 12.2963Z" fill="#203C74"/>
<path d="M18.7408 41.1852C17.4074 41.1852 16.0741 41.4815 14.5926 41.6296C13.7037 41.9259 12.3704 42.3704 12.2222 41.037C12.0741 39.5555 13.5556 40 14.4445 39.8518C15.4815 39.7037 16.3704 39.7037 17.5556 39.5555C18.1482 40 18.5926 40.4444 18.7408 41.1852Z" fill="#203C74"/>
<path d="M30.7408 43.2591C30.4445 44.2961 29.5556 43.8517 28.8149 43.7035C28.2223 43.5554 27.6297 43.4072 27.1852 43.1109C26.2963 42.5183 25.2593 42.0739 24.3704 41.7776C24.8149 41.185 25.2593 40.7406 25.7038 40.4443C26.8889 41.185 28.2223 41.3332 29.4075 41.7776C30 42.2221 31.0371 42.3702 30.7408 43.2591Z" fill="#203C74"/>
</g>
<defs>
<clipPath id="clip0">
<rect width="43.8519" height="40" fill="white" transform="translate(2 4)"/>
</clipPath>
</defs>
</svg>
