<svg width="48" height="48" viewBox="0 0 48 48" fill="none" xmlns="http://www.w3.org/2000/svg">
<g clip-path="url(#clip0)">
<path d="M34.0301 37.4599C34.6385 40.3497 32.8134 43.3915 29.9237 43.9999C27.0339 44.6082 23.9921 42.7831 23.3837 39.8934C22.7754 37.0037 24.6005 33.9618 27.4902 33.3535C30.532 32.593 33.4218 34.4181 34.0301 37.4599Z" fill="#D49529"/>
<path d="M33.7262 36.5473L23.384 38.8287C22.4714 38.9807 21.4068 38.3724 21.2547 37.4598L20.4943 33.8096L34.3346 30.7678L35.095 34.418C35.2471 35.3306 34.6387 36.3952 33.7262 36.5473Z" fill="#D49529"/>
<path d="M38.1367 15.2546C39.8097 23.0113 34.9428 30.6158 27.3383 32.2888C19.5816 33.9618 11.977 29.0949 10.304 21.4904C8.63103 13.5816 13.498 5.97704 21.2546 4.30404C28.8592 2.63103 36.4637 7.49795 38.1367 15.2546Z" fill="#FBC72D"/>
<path d="M34.4866 33.5055L21.2546 36.3952C20.4942 36.5473 19.5816 36.091 19.4295 35.3306L18.6691 31.3762L34.9428 27.726L35.8554 31.6804C35.8554 32.5929 35.3991 33.3534 34.4866 33.5055Z" fill="#FBC72D"/>
<path d="M28.5552 34.2662C27.7947 32.137 26.7301 29.8556 27.6426 27.5742C27.7947 27.118 27.9468 26.8138 28.251 26.3575C28.4031 26.2054 28.5552 26.0533 28.7072 25.9012C28.8593 25.9012 28.8593 25.9012 28.8593 25.7491C28.7072 25.7491 28.8593 25.7491 28.8593 25.7491L29.0114 25.9012C29.1635 26.0533 29.1635 26.2054 29.3156 26.3575C29.4677 26.6617 29.6198 26.9659 29.6198 27.4221C29.6198 27.5742 29.6198 27.7263 29.4677 27.8784C29.4677 28.0305 29.4677 27.8784 29.3156 28.0305C29.1635 28.1826 29.1635 28.0305 29.3156 28.0305C29.0114 28.1826 28.7072 28.0305 28.4031 28.0305C27.6426 27.8784 27.0342 27.4221 26.4259 26.9659C24.7529 25.9012 23.8403 23.7719 23.6882 21.7948C23.5361 19.2092 24.1445 16.6237 23.232 14.0381C23.0799 13.7339 22.6236 13.4297 22.1673 13.5818C21.8631 13.5818 21.4069 14.1902 21.559 14.4944C22.4715 17.0799 21.711 19.8176 22.0152 22.5552C22.3194 25.1408 23.6882 27.5742 25.9696 28.791C26.8822 29.2472 27.9468 29.8556 28.8593 29.7035C30.0761 29.7035 31.1407 28.6389 31.1407 27.4221C31.1407 26.3575 30.5323 25.1408 29.7719 24.5324C28.7072 23.6199 27.3384 24.5324 26.7301 25.445C24.7529 28.3347 25.8175 31.6807 27.0342 34.5704C27.1863 35.0267 27.6426 35.3309 28.0989 35.1788C28.4031 35.1788 28.7072 34.7225 28.5552 34.2662Z" fill="#FFD44C"/>
</g>
<defs>
<clipPath id="clip0">
<rect width="28.5932" height="40" fill="white" transform="translate(10 4)"/>
</clipPath>
</defs>
</svg>
