<svg width="48" height="48" viewBox="0 0 48 48" fill="none" xmlns="http://www.w3.org/2000/svg">
<g clip-path="url(#clip0)">
<path d="M17.2508 20.5472H16.5993C15.8175 20.5472 15.1661 19.8958 15.2964 19.114L15.6873 5.30293C15.6873 4.65147 16.3387 4 17.1205 4H17.7719C16.9902 4 16.3387 4.65147 16.3387 5.30293L15.9478 19.114C15.9478 19.8958 16.5993 20.5472 17.2508 20.5472Z" fill="#1C5199"/>
<path d="M35.101 5.82402L34.7101 21.5895C34.7101 22.241 34.189 22.7621 33.6678 22.8924C33.2769 23.0227 32.886 22.8924 32.4951 22.6318L30.671 21.1986C30.4105 20.938 30.1499 20.938 29.759 20.938L17.3811 20.5471C16.5994 20.5471 15.9479 19.8957 16.0782 19.1139L16.3388 5.43314C16.3388 4.65138 16.9903 3.99992 17.772 4.13021L33.7981 4.52109C34.4495 4.52109 35.101 5.04226 35.101 5.82402Z" fill="#1C5199"/>
<path d="M35.1009 5.82402L34.7101 21.5895C34.7101 22.241 34.1889 22.7621 33.6677 22.8924C33.5374 22.8924 33.2768 22.7621 33.1465 22.6318L31.3224 21.1986C31.0618 20.938 30.8013 20.938 30.4104 20.938L17.2508 20.5471C16.469 20.5471 15.8175 19.8957 15.9478 19.1139L16.3387 5.43314C16.3387 4.65138 16.9902 3.99992 17.7719 4.13021L33.798 4.52109C34.4495 4.52109 35.1009 5.04226 35.1009 5.82402Z" fill="#FBC72D"/>
<path d="M27.4137 39.57L28.0652 39.4397C28.8469 39.3094 29.3681 38.6579 29.2378 37.8761L27.2834 24.3256C27.1531 23.5439 26.5016 23.0227 25.7199 23.153L24.9381 23.2833C25.7199 23.153 26.3714 23.6742 26.5016 24.4559L28.456 38.0064C28.7166 38.7882 28.1955 39.4397 27.4137 39.57Z" fill="#FBC72D"/>
<path d="M7.99996 27.1919L10.3452 42.827C10.4755 43.4785 10.9967 43.9997 11.6482 43.9997C12.039 43.9997 12.4299 43.8694 12.8208 43.6088L14.254 41.7847C14.5146 41.5241 14.7752 41.3938 15.0358 41.3938L27.2833 39.5697C28.0651 39.4394 28.5863 38.788 28.456 38.0062L26.5016 24.4557C26.3713 23.674 25.7198 23.1528 24.9381 23.2831L9.1726 25.6284C8.39084 25.6284 7.86967 26.4101 7.99996 27.1919Z" fill="#FBC72D"/>
<path d="M7.99996 27.1919L10.3452 42.827C10.4755 43.4785 10.9967 43.9997 11.6482 43.9997C11.7785 43.8694 12.039 43.8694 12.1693 43.6088L13.7329 41.915C13.9934 41.6544 14.254 41.5241 14.5146 41.5241L27.5439 39.5697C28.3257 39.4394 28.8469 38.788 28.7166 38.0062L26.7622 24.4557C26.6319 23.674 25.9804 23.1528 25.1987 23.2831L9.1726 25.6284C8.39084 25.6284 7.86967 26.4101 7.99996 27.1919Z" fill="#1C5199"/>
<path d="M18.684 28.2347L20.1172 30.1891C20.2475 30.3194 20.3778 30.4497 20.5081 30.4497H22.9837C23.3745 30.4497 23.6351 30.9708 23.3745 31.2314L21.9413 33.1858C21.811 33.3161 21.811 33.4464 21.811 33.5767L22.5928 35.922C22.7231 36.3128 22.3322 36.7037 21.9413 36.5734L19.596 35.7917C19.4657 35.7917 19.3355 35.7917 19.2052 35.922L17.1205 37.2249C16.7296 37.4855 16.3387 37.2249 16.3387 36.834V34.3584C16.3387 34.2282 16.2084 34.0979 16.0781 33.9676L14.1237 32.5343C13.7328 32.2738 13.8631 31.7526 14.254 31.6223L16.5993 30.9708C16.7296 30.9708 16.8599 30.8405 16.9902 30.7102L17.7719 28.365C17.9022 27.9741 18.4234 27.8438 18.684 28.2347Z" fill="#FBC72D"/>
<path d="M25.4592 17.0293C27.9778 17.0293 30.0195 14.9876 30.0195 12.4691C30.0195 9.95051 27.9778 7.90881 25.4592 7.90881C22.9406 7.90881 20.8989 9.95051 20.8989 12.4691C20.8989 14.9876 22.9406 17.0293 25.4592 17.0293Z" fill="#1C5199"/>
</g>
<defs>
<clipPath id="clip0">
<rect width="27.101" height="40" fill="white" transform="translate(8 4)"/>
</clipPath>
</defs>
</svg>
