<svg width="48" height="48" viewBox="0 0 48 48" fill="none" xmlns="http://www.w3.org/2000/svg">
<g clip-path="url(#clip0)">
<path d="M28.7547 4.12579L29.5094 9.66038L30.0126 14.1887L32.0252 14.566L30.3899 9.28302L28.7547 4V4.12579Z" fill="#43093D"/>
<path d="M22.3396 13.0565L30.0126 14.1886L29.5094 9.66026L28.7547 4.12567L25.61 8.52819L22.8427 12.3018L22.3396 13.0565Z" fill="#6C2368"/>
<path d="M35.2957 15.0692L34.1636 22.239L31.5221 21.8617C32.0252 18.717 30.1384 15.9497 27.3711 15.4466C24.6038 15.0692 21.9623 17.2076 21.4592 20.2264L19.6982 19.9749L20.8303 12.8051L35.2957 15.0692Z" fill="#D49529"/>
<path d="M19.8264 33.6978L9.1418 32.0038L7.99931 39.2096L18.6839 40.9037L19.8264 33.6978Z" fill="#ED2224"/>
<path d="M23.3679 20.5593L16.659 19.4956L15.5165 26.7015L22.2254 27.7652L23.3679 20.5593Z" fill="#ED2224"/>
<path d="M19.8617 33.7621L16.383 33.2105L15.2405 40.4164L18.7192 40.9679L19.8617 33.7621Z" fill="#BF2026"/>
<path d="M39.3166 36.8376L28.632 35.1436L27.4895 42.3494L38.1741 44.0435L39.3166 36.8376Z" fill="#2C59A9"/>
<path d="M39.3719 36.7777L35.8932 36.2261L34.7507 43.432L38.2294 43.9835L39.3719 36.7777Z" fill="#1C5199"/>
<path d="M35.6498 29.89L14.1565 26.4822L13.1716 32.6941L34.6649 36.1019L35.6498 29.89Z" fill="#FBC72D"/>
<path d="M33.5346 14.8176L32.4025 21.9874L29.761 21.61C30.2641 18.4654 28.3773 15.6981 25.61 15.1949C22.8427 14.8176 20.2012 16.9559 19.6981 19.9748L17.9371 19.7232L19.0692 12.5534L33.5346 14.8176Z" fill="#FBC72D"/>
<path d="M35.6501 29.8172L32.5442 29.3248L31.5593 35.5367L34.6652 36.0292L35.6501 29.8172Z" fill="#D49529"/>
<path d="M23.3932 20.5815L21.1569 20.2269L20.0144 27.4328L22.2507 27.7874L23.3932 20.5815Z" fill="#BF2026"/>
<path d="M35.1941 22.4309L28.4852 21.3672L27.3427 28.5731L34.0516 29.6368L35.1941 22.4309Z" fill="#ED2224"/>
<path d="M35.3436 22.473L33.1073 22.1185L31.9648 29.3243L34.2011 29.6789L35.3436 22.473Z" fill="#BF2026"/>
</g>
<defs>
<clipPath id="clip0">
<rect width="31.3208" height="40" fill="white" transform="translate(8 4)"/>
</clipPath>
</defs>
</svg>
