<svg width="48" height="48" viewBox="0 0 48 48" fill="none" xmlns="http://www.w3.org/2000/svg">
<g clip-path="url(#clip0)">
<path d="M18.1254 11.2654L6.11221 13.6532C4.66007 13.9185 3.73598 15.3777 4 16.8369L7.56436 34.745C7.69637 35.2757 7.9604 35.8063 8.35644 36.2042C9.0165 36.7348 9.80858 37.1328 10.7327 36.8675L22.7459 34.4797C23.67 34.3471 24.33 33.6838 24.7261 32.8879C24.9901 32.3573 24.9901 31.8267 24.8581 31.2961L21.2937 13.3879C21.0297 11.9287 19.5776 11.0001 18.1254 11.2654ZM24.066 31.4287C24.33 32.4899 23.538 33.5512 22.4818 33.6838L10.6007 36.0716C9.54456 36.3369 8.48845 35.541 8.35644 34.4797L7.9604 32.6226C8.22442 29.041 10.9967 25.8573 14.6931 25.0614C18.3894 24.2654 22.0858 26.2552 23.802 29.4389L24.066 31.4287Z" fill="#43093D"/>
<path d="M20.6337 13.5205L23.802 29.4388C22.0858 26.2552 18.5215 24.2654 14.6931 25.0613C10.9967 25.8572 8.22442 28.9082 7.96039 32.6225L4.79208 16.7041C4.52805 15.6429 5.32013 14.5817 6.24422 14.3164L18.2574 11.9286C19.3135 11.796 20.3696 12.4592 20.6337 13.5205Z" fill="#6C2368"/>
<path d="M17.8614 18.9595C18.2575 21.3473 16.8053 23.6024 14.5611 24.0003C12.1849 24.5309 9.94063 22.9391 9.41258 20.684C9.01654 18.2963 10.4687 16.0411 12.8449 15.6432C15.0891 15.1126 17.3334 16.7044 17.8614 18.9595Z" fill="#FBC72D"/>
<path d="M23.6699 29.4387L24.0659 31.4285C24.3299 32.4897 23.5379 33.5509 22.4817 33.6836L10.6006 36.0713C9.54445 36.3366 8.48835 35.5407 8.35634 34.4795L7.9603 32.6224C8.22432 29.0407 10.9966 25.857 14.693 25.0611C18.3893 24.3979 22.0857 26.255 23.6699 29.4387Z" fill="#FBC72D"/>
<path d="M19.4456 27.4488L19.8416 27.9794C19.8416 28.1121 19.9736 28.1121 20.1057 28.1121H20.7657C21.0298 28.1121 21.1618 28.3774 21.0298 28.51L20.6337 29.0407C20.6337 29.1733 20.6337 29.1733 20.6337 29.306L20.8977 29.8366C21.0298 29.9692 20.7657 30.2345 20.6337 30.2345L19.8416 29.8366C19.7096 29.8366 19.7096 29.8366 19.5776 29.8366L19.0496 30.2345C18.9175 30.3672 18.6535 30.2345 18.6535 30.1019V29.4386C18.6535 29.306 18.6535 29.306 18.5215 29.1733L17.9934 28.7753C17.8614 28.6427 17.8614 28.3774 17.9934 28.3774L18.5215 28.1121C18.6535 28.1121 18.6535 27.9794 18.6535 27.9794L18.7855 27.3162C19.0496 27.3162 19.3136 27.3162 19.4456 27.4488Z" fill="#6C2368"/>
<path d="M15.8811 14.0506L9.01639 15.3771C8.62035 15.5098 8.35632 15.2445 8.35632 14.9792C8.35632 14.7138 8.48834 14.4485 8.75236 14.4485L15.617 13.122C15.8811 13.122 16.1451 13.2547 16.1451 13.52C16.2771 13.7853 16.1451 14.0506 15.8811 14.0506Z" fill="#43093D"/>
<path d="M41.8877 14.051L30.0065 11.1326C28.5544 10.7346 27.1023 11.6632 26.7062 13.1224L22.4818 30.7652C22.3498 31.2958 22.3498 31.8265 22.6138 32.3571C22.8778 33.153 23.5379 33.8163 24.462 33.9489L36.3432 36.8673C37.2673 37.1326 38.0593 36.8673 38.7194 36.3367C39.1155 35.9387 39.3795 35.5407 39.5115 35.0101L43.8679 17.3673C44.264 15.9081 43.3399 14.4489 41.8877 14.051ZM38.8514 34.8775C38.5874 35.9387 37.5313 36.602 36.4752 36.3367L24.594 33.4183C23.5379 33.153 22.8778 32.0918 23.1419 31.0305L23.6699 29.1734C25.5181 25.9897 29.2145 24.2652 32.9108 25.1938C36.6072 26.1224 39.1155 29.4387 39.2475 33.0203L38.8514 34.8775Z" fill="#43093D"/>
<path d="M43.2078 17.1017L39.2474 32.8874C39.1154 29.1731 36.6071 25.9894 32.9108 25.0609C29.2144 24.1323 25.518 25.8568 23.6698 29.0405L27.6302 13.2547C27.8943 12.1935 28.9504 11.5303 30.0065 11.7956L41.8877 14.7139C42.8117 14.9792 43.4718 16.0405 43.2078 17.1017Z" fill="#6C2368"/>
<path d="M38.3233 20.949C37.7953 23.2042 35.419 24.6633 33.1748 24.1327C30.9306 23.6021 29.4784 21.2144 30.0065 18.9593C30.5346 16.7042 32.9108 15.245 35.155 15.7756C37.5312 16.3062 38.9834 18.5613 38.3233 20.949Z" fill="#FBC72D"/>
<path d="M39.2473 32.8873L38.8513 34.8771C38.5873 35.9383 37.5312 36.6016 36.4751 36.3363L24.5939 33.4179C23.5378 33.1526 22.8777 32.0914 23.1417 31.0302L23.6698 29.173C25.518 25.9893 29.2143 24.2649 32.9107 25.1934C36.6071 25.9893 39.1153 29.3057 39.2473 32.8873Z" fill="#FBC72D"/>
<path d="M36.3431 29.3058L36.4751 29.969C36.4751 30.1017 36.6071 30.1017 36.6071 30.1017L37.1352 30.367C37.2672 30.4996 37.3992 30.765 37.1352 30.765L36.6071 31.0303C36.4751 31.0303 36.4751 31.1629 36.4751 31.2956V31.9588C36.4751 32.2241 36.2111 32.2241 36.0791 32.0915L35.551 31.6935C35.551 31.6935 35.419 31.5609 35.287 31.6935L34.6269 31.8262C34.3629 31.8262 34.2309 31.6935 34.3629 31.4282L34.6269 30.8976C34.6269 30.765 34.6269 30.765 34.6269 30.6323L34.3629 30.1017C34.2309 29.969 34.3629 29.7037 34.6269 29.7037H35.287C35.419 29.7037 35.419 29.7037 35.551 29.5711L35.9471 29.0405C35.9471 29.0405 36.2111 29.0405 36.3431 29.3058Z" fill="#6C2368"/>
<path d="M38.5874 15.6433L31.7227 13.9188C31.4587 13.7862 31.3267 13.5209 31.3267 13.2556C31.4587 12.9903 31.7227 12.8576 31.9867 12.8576L38.8514 14.5821C39.1154 14.7147 39.2474 14.9801 39.2474 15.2454C39.1154 15.5107 38.8514 15.6433 38.5874 15.6433Z" fill="#43093D"/>
<path d="M29.8746 11.1324L17.5974 11.3978C16.1452 11.3978 14.9571 12.7243 14.9571 14.1835L15.4852 32.3569C15.4852 32.8875 15.7492 33.4182 16.0132 33.9488C16.5413 34.612 17.3334 35.01 18.2575 35.01L30.5347 34.7447C31.4588 34.7447 32.2509 34.2141 32.6469 33.5508C32.9109 33.1529 33.1749 32.6222 33.0429 31.959L32.6469 13.7855C32.6469 12.3263 31.4588 11.1324 29.8746 11.1324ZM32.3829 32.0916C32.3829 33.1529 31.5908 34.0814 30.5347 34.0814L18.2575 34.3467C17.2013 34.3467 16.2773 33.5508 16.2773 32.4896V30.4998C17.2013 26.9182 20.3697 24.2651 24.198 24.2651C28.0264 24.1324 31.3268 26.6529 32.3829 30.1018V32.0916Z" fill="#43093D"/>
<path d="M31.9868 13.7856L32.3828 29.9693C31.3267 26.5203 28.0264 23.9999 24.198 24.1325C20.3696 24.2652 17.2013 26.9182 16.2772 30.3672L15.8812 14.3162C15.7492 13.255 16.6733 12.3264 17.7294 12.3264L30.0066 12.0611C31.0627 11.9284 31.8548 12.7244 31.9868 13.7856Z" fill="#6C2368"/>
<path d="M28.2905 18.8265C28.2905 21.2143 26.4423 23.2041 24.1981 23.2041C21.8218 23.2041 19.8416 21.3469 19.8416 19.0918C19.8416 16.7041 21.6898 14.7143 23.9341 14.7143C26.3103 14.5816 28.1585 16.4388 28.2905 18.8265Z" fill="#FBC72D"/>
<path d="M32.3828 30.1019V32.0917C32.3828 33.1529 31.5907 34.0815 30.5346 34.0815L18.2574 34.3468C17.2013 34.3468 16.2772 33.5508 16.2772 32.4896V30.4998C17.2013 26.9182 20.3696 24.2651 24.198 24.2651C28.0263 24.1325 31.3267 26.6529 32.3828 30.1019Z" fill="#FBC72D"/>
<path d="M28.5546 27.449L28.8186 27.9796C28.8186 28.1122 28.9506 28.1122 28.9506 28.1122L29.6107 28.2449C29.8747 28.2449 29.8747 28.5102 29.7427 28.6429L29.3466 29.0408C29.3466 29.0408 29.2146 29.1735 29.2146 29.3061L29.3466 29.9694C29.3466 30.2347 29.2146 30.3673 28.9506 30.2347L28.4226 29.9694C28.2905 29.9694 28.2905 29.9694 28.1585 29.9694L27.7625 30.2347C27.6305 30.3673 27.3665 30.2347 27.3665 29.9694L27.4985 29.3061C27.4985 29.1735 27.4985 29.1735 27.3665 29.0408L26.9704 28.6429C26.8384 28.5102 26.8384 28.2449 27.1024 28.2449L27.7625 28.1122C27.8945 28.1122 27.8945 27.9796 27.8945 27.9796L28.1585 27.449C28.1585 27.1837 28.4226 27.1837 28.5546 27.449Z" fill="#6C2368"/>
<path d="M27.1024 13.5201L20.1057 13.6527C19.8417 13.6527 19.5776 13.3874 19.5776 13.1221C19.5776 12.8568 19.8417 12.5915 20.1057 12.5915L27.1024 12.4589C27.3664 12.4589 27.6304 12.7242 27.6304 12.9895C27.6304 13.3874 27.3664 13.5201 27.1024 13.5201Z" fill="#43093D"/>
</g>
<defs>
<clipPath id="clip0">
<rect width="40" height="26" fill="white" transform="translate(4 11)"/>
</clipPath>
</defs>
</svg>
