<svg width="31" height="40" viewBox="0 0 31 40" fill="none" xmlns="http://www.w3.org/2000/svg">
<g clip-path="url(#clip0)">
<path d="M14.8496 19.1301L21.271 39.197L23.9466 37.4578L27.6924 39.9996L21.271 19.9327L14.8496 19.1301Z" fill="#6C2368"/>
<path d="M17.5251 19.5317L6.4214 37.3244L4.14716 34.9164L0 36.5217L11.1037 18.7291L17.5251 19.5317Z" fill="#6C2368"/>
<path d="M19.9331 1.47133C21.0034 -0.000244081 23.2776 0.936211 23.0101 2.67534C22.8763 4.01313 24.2141 4.94959 25.4181 4.41447C27.0234 3.74557 28.495 5.61848 27.4248 6.95628C26.6221 8.02651 27.291 9.49808 28.6288 9.63186C30.3679 9.76564 30.7693 12.1737 29.0301 12.8426C27.8261 13.3777 27.5586 14.983 28.6288 15.7857C30.1004 16.8559 29.1639 19.1302 27.4248 18.8626C26.087 18.7289 25.1505 20.0666 25.6856 21.2707C26.3545 22.876 24.4816 24.3476 23.1438 23.2773C22.0736 22.4747 20.602 23.1436 20.4683 24.4814C20.3345 26.2205 17.9264 26.6218 17.2576 24.8827C16.7224 23.6787 15.1171 23.4111 14.3144 24.4814C13.2442 25.9529 10.9699 25.0165 11.2375 23.2773C11.3713 21.9396 10.0335 21.0031 8.82946 21.5382C7.22411 22.2071 5.75254 20.3342 6.82277 18.9964C7.62545 17.9262 6.95655 16.4546 5.61876 16.3208C3.74585 16.0533 3.34451 13.6452 4.94986 12.9763C6.28765 12.575 6.42143 10.8359 5.3512 10.0332C4.01341 9.09674 4.81608 6.8225 6.55521 7.09006C7.89301 7.22384 8.82946 5.88604 8.29434 4.68203C7.75923 3.07668 9.63214 1.60511 10.9699 2.67534C12.0402 3.47802 13.5117 2.80912 13.6455 1.47133C13.7793 -0.267802 16.1873 -0.66914 16.8562 1.06999C17.5251 2.274 19.1305 2.54156 19.9331 1.47133Z" fill="#43093D"/>
<path d="M17.2576 21.6719C21.9123 21.6719 25.6857 17.8985 25.6857 13.2438C25.6857 8.58906 21.9123 4.81567 17.2576 4.81567C12.6029 4.81567 8.82954 8.58906 8.82954 13.2438C8.82954 17.8985 12.6029 21.6719 17.2576 21.6719Z" fill="#2A0F29"/>
<path d="M16.9899 21.5383C21.6446 21.5383 25.418 17.7649 25.418 13.1102C25.418 8.45552 21.6446 4.68213 16.9899 4.68213C12.3352 4.68213 8.56182 8.45552 8.56182 13.1102C8.56182 17.7649 12.3352 21.5383 16.9899 21.5383Z" fill="#6C2368"/>
<path d="M9.7658 24.2138C10.1352 24.2138 10.4347 23.9143 10.4347 23.5449C10.4347 23.1755 10.1352 22.876 9.7658 22.876C9.39638 22.876 9.09691 23.1755 9.09691 23.5449C9.09691 23.9143 9.39638 24.2138 9.7658 24.2138Z" fill="#43093D"/>
<path d="M18.194 8.02624L19.1304 10.568C19.2642 10.8356 19.398 10.9694 19.5318 10.9694L22.0736 11.6383C22.6087 11.7721 22.7425 12.441 22.3411 12.8423L20.2007 14.4476C20.0669 14.5814 19.9331 14.849 19.9331 14.9828L20.0669 17.6583C20.0669 18.1935 19.5318 18.5948 18.9966 18.1935L16.8562 16.5881C16.7224 16.4543 16.4548 16.4543 16.1873 16.4543L13.6455 17.3908C13.1104 17.5246 12.5752 17.1232 12.8428 16.5881L13.6455 14.0463C13.6455 13.7787 13.6455 13.645 13.5117 13.3774L11.7726 11.5045C11.3712 11.1032 11.7726 10.4343 12.3077 10.4343H14.9833C15.2508 10.4343 15.3846 10.3005 15.5184 10.1667L16.99 7.89246C17.3913 7.49113 18.0602 7.49113 18.194 8.02624Z" fill="#43093D"/>
</g>
<defs>
<clipPath id="clip0">
<rect width="30.1003" height="40" fill="white"/>
</clipPath>
</defs>
</svg>
