<svg width="48" height="48" viewBox="0 0 48 48" fill="none" xmlns="http://www.w3.org/2000/svg">
<g clip-path="url(#clip0)">
<path d="M18.9968 15.902C18.9968 19.0588 16.3924 21.6667 13.1027 21.6667C9.95008 21.6667 7.34571 19.0588 7.34571 15.7647C7.34571 12.4706 10.0871 10 13.2398 10C16.3924 10 18.9968 12.6078 18.9968 15.902Z" fill="#2C59A9"/>
<path d="M23.9315 31.4118V34.1569C23.9315 35.6667 22.6978 36.7647 21.3271 36.7647L4.60436 36.4902C3.09657 36.4902 2 35.2549 2 33.8824V31.1373C3.50779 26.4706 7.89408 23.0392 13.1028 23.0392C18.3115 23.1765 22.5607 26.6079 23.9315 31.4118Z" fill="#2C59A9"/>
<path d="M41.0654 16.1764C41.0654 19.3332 38.461 21.9411 35.1713 21.9411C32.0187 21.9411 29.4143 19.3332 29.4143 16.0391C29.4143 12.8823 32.0187 10.2744 35.3084 10.2744C38.461 10.4117 41.0654 13.0195 41.0654 16.1764Z" fill="#ED2224"/>
<path d="M46.0001 31.6862V34.4313C46.0001 35.9411 44.7664 37.0391 43.3957 37.0391L26.6729 36.7646C25.1652 36.7646 24.0686 35.5293 24.0686 34.1568V31.4117C25.5764 26.745 29.9627 23.3137 35.1714 23.3137C40.3801 23.4509 44.6293 27.0195 46.0001 31.6862Z" fill="#ED2224"/>
<path d="M15.5701 31.0002C16.857 31.0002 17.9003 29.9555 17.9003 28.6668C17.9003 27.3782 16.857 26.3335 15.5701 26.3335C14.2831 26.3335 13.2398 27.3782 13.2398 28.6668C13.2398 29.9555 14.2831 31.0002 15.5701 31.0002Z" fill="#ED2224"/>
<path d="M30.0996 17.2746C30.0996 20.4314 27.4953 23.0393 24.2055 23.0393C21.0529 23.0393 18.4485 20.4314 18.4485 17.1373C18.4485 13.8432 21.0529 11.3726 24.3426 11.3726C27.4953 11.3726 30.0996 13.9805 30.0996 17.2746Z" fill="#FBC72D"/>
<path d="M35.0343 32.7844V35.5295C35.0343 37.0393 33.8006 38.1374 32.4299 38.1374L15.7072 37.8628C14.1994 37.8628 13.1028 36.6276 13.1028 35.255V32.5099C14.6106 27.8432 18.9969 24.4119 24.2056 24.4119C29.4143 24.5491 33.6636 27.9805 35.0343 32.7844Z" fill="#FBC72D"/>
<path d="M28.0436 34.0196C29.3306 34.0196 30.3739 32.9749 30.3739 31.6862C30.3739 30.3976 29.3306 29.3529 28.0436 29.3529C26.7567 29.3529 25.7134 30.3976 25.7134 31.6862C25.7134 32.9749 26.7567 34.0196 28.0436 34.0196Z" fill="#43093D"/>
<path d="M39.1465 32.51C40.4334 32.51 41.4767 31.4654 41.4767 30.1767C41.4767 28.8881 40.4334 27.8434 39.1465 27.8434C37.8595 27.8434 36.8162 28.8881 36.8162 30.1767C36.8162 31.4654 37.8595 32.51 39.1465 32.51Z" fill="#2C59A9"/>
</g>
<defs>
<clipPath id="clip0">
<rect width="44" height="28" fill="white" transform="translate(2 10)"/>
</clipPath>
</defs>
</svg>
