<svg width="48" height="48" viewBox="0 0 48 48" fill="none" xmlns="http://www.w3.org/2000/svg">
<path d="M17.5361 17.4611C17.6882 17.4611 17.6882 17.4611 17.8403 17.4611C18.6008 17.4611 19.6654 17.1534 20.1217 17.6149C20.73 18.0765 20.2738 19.1534 20.4259 19.9226C20.4259 20.3841 20.5779 20.6918 21.0342 20.6918C21.1863 20.6918 21.3384 20.6918 21.4905 20.8457C22.7072 21.7688 23.6198 21.3072 24.5323 20.2303C24.9886 19.6149 25.2928 19.4611 25.9011 20.2303C26.8137 21.1534 27.7262 22.0765 28.6388 22.9995C29.0951 23.4611 29.2471 23.7688 28.6388 24.2303L28.4867 24.3841C27.27 25.6149 27.1179 26.6918 28.1825 28.0765C28.4867 28.538 28.943 28.3841 29.3992 28.3841C31.2243 28.3841 31.2243 28.3841 31.2243 30.0765C31.2243 31.1534 31.2243 32.2303 31.2243 33.3072C31.2243 33.9226 31.0722 34.2303 30.4639 34.0765C30.4639 34.0765 30.3118 34.0765 30.1597 34.0765C28.1825 34.0765 27.8783 34.3841 27.27 36.3841C27.1179 36.9995 27.5741 37.3072 28.0304 37.6149C29.2471 38.8457 29.2471 38.8457 28.0304 40.0765C27.27 40.8457 26.5095 41.6149 25.7491 42.3841C25.2928 42.8457 24.9886 42.9995 24.5323 42.3841L24.3802 42.2303C23.0114 40.8457 22.5551 40.6918 20.73 41.7688C20.1217 42.0765 20.4259 42.6918 20.4259 43.1534C20.4259 44.9995 20.4259 44.9995 18.6008 44.9995C17.5361 44.9995 16.4715 44.9995 15.5589 44.9995C14.7985 44.9995 14.4943 44.8457 14.6464 44.0765V43.9226C14.6464 41.9226 14.1901 41.4611 12.365 40.9995C11.7567 40.8457 11.6046 41.4611 11.3004 41.7688C9.93156 42.9995 10.0837 42.9995 8.86692 41.7688C8.56274 41.4611 8.10646 41.1534 7.80228 40.8457C7.19392 40.2303 6.28137 39.6149 6.12928 38.9995C5.97719 38.3841 7.04183 37.7688 7.65019 37.3072C7.95437 36.9995 7.95437 36.6918 7.80228 36.3841C7.80228 36.2303 7.65019 36.2303 7.65019 36.0765C7.34601 34.538 6.43346 34.0765 5.06464 34.2303C4.30418 34.2303 4 33.9226 4 33.1534C4 31.7688 4 30.538 4 29.1534C4 28.538 4.15209 28.0765 4.91255 28.2303C4.91255 28.2303 5.06464 28.2303 5.21673 28.2303C5.8251 28.2303 6.58555 28.538 7.04183 28.0765C7.4981 27.4611 7.80228 26.538 8.10646 25.7688C8.25855 25.1534 7.65019 24.8457 7.19392 24.538C6.12928 23.4611 6.12928 23.4611 7.19392 22.3841C7.95437 21.6149 8.86692 20.6918 9.62738 19.9226C10.0837 19.4611 10.3878 19.4611 10.692 19.9226L10.8441 20.0765C12.365 21.6149 12.8213 21.6149 14.4943 20.538C14.7985 20.3841 14.6464 19.9226 14.6464 19.6149C14.6464 17.4611 14.6464 17.4611 16.7757 17.4611C17.0798 17.4611 17.384 17.4611 17.5361 17.4611ZM12.365 31.1534C12.365 34.0765 14.6464 36.538 17.5361 36.538C20.4259 36.538 22.8593 34.2303 22.8593 31.3072C22.8593 28.3841 20.5779 26.0765 17.6882 25.9226C14.7985 25.9226 12.365 28.2303 12.365 31.1534Z" fill="#1E4490"/>
<path d="M19.057 6.99987C19.5132 6.99987 19.9695 7.61525 20.5779 6.69217C20.8821 6.23064 21.1862 5.7691 20.73 5.30756C20.4258 4.69217 20.4258 4.38448 21.0341 4.23064C21.4904 4.07679 21.7946 3.92294 22.0988 3.61525C22.8592 3.15371 23.4676 2.99987 23.7718 4.07679C24.076 4.69217 24.5322 4.53833 24.9885 4.53833C25.4448 4.53833 26.0532 4.53833 26.0532 3.92294C26.2053 2.99987 26.6615 2.99987 27.422 3.30756C27.7262 3.4614 28.1824 3.61525 28.4866 3.61525C29.3992 3.7691 29.7034 4.23064 29.2471 4.99987C28.9429 5.4614 29.2471 5.7691 29.5513 6.07679C30.0075 6.38448 30.3117 6.84602 30.768 6.38448C31.5284 5.7691 31.9847 6.23064 32.2889 6.99987C32.441 7.30756 32.5931 7.61525 32.7452 7.92294C33.2015 8.69217 33.2015 9.15371 32.2889 9.4614C31.5284 9.61525 31.8326 10.2306 31.8326 10.6922C31.8326 11.1537 31.9847 11.6153 32.441 11.6153C33.3535 11.7691 33.5056 12.2306 33.0494 12.9999C32.8973 13.3076 32.7452 13.7691 32.7452 14.0768C32.5931 14.846 32.2889 15.3076 31.3764 14.846C30.768 14.5383 30.4638 14.846 30.1596 15.3076C29.7034 15.7691 29.5513 16.0768 30.0075 16.5383C30.4638 17.1537 30.3117 17.6153 29.5513 17.7691C29.095 17.9229 28.7908 18.0768 28.4866 18.3845C27.7262 18.846 27.2699 18.846 26.9657 17.9229C26.8136 17.1537 26.2053 17.4614 25.5969 17.4614C24.9885 17.4614 24.8364 17.7691 24.6843 18.2306C24.5322 19.1537 24.076 19.1537 23.3155 18.846C23.0113 18.6922 22.5551 18.5383 22.2509 18.3845C21.4904 18.2306 21.0341 17.7691 21.4904 16.9999C21.7946 16.3845 21.4904 16.2306 21.0341 15.9229C20.73 15.6152 20.4258 15.1537 19.8174 15.6153C19.057 16.2306 18.6007 15.9229 18.2965 14.9999C18.4486 14.5383 18.2965 14.2306 17.9923 13.7691C17.6881 13.1537 17.6881 12.846 18.4486 12.5383C19.2091 12.3845 19.057 11.9229 19.057 11.3076C19.057 10.6922 18.9049 10.3845 18.2965 10.2306C17.536 10.0768 17.384 9.7691 17.6881 8.99987C17.9923 8.38448 18.1444 7.7691 18.2965 7.30756C18.4486 6.99987 18.4486 6.84602 19.057 6.99987ZM22.403 10.9999C22.403 12.6922 23.6197 14.0768 25.4448 14.0768C27.1178 14.0768 28.4866 12.6922 28.4866 10.9999C28.4866 9.30756 27.2699 7.92294 25.4448 7.92294C23.7718 7.92294 22.403 9.15371 22.403 10.9999Z" fill="#ED2224"/>
<path d="M30.616 23.1539C30.7681 22.3847 30.4639 22.077 29.8556 21.9232C29.2472 21.7693 29.0951 21.4616 29.3993 21.0001C29.5514 20.6924 29.7035 20.2309 29.8556 19.7693C30.0076 18.8462 30.4639 18.5386 31.2244 19.0001C31.6806 19.3078 31.9848 19.0001 32.1369 18.6924C32.289 18.3847 32.8974 18.2309 32.5932 17.6155C31.8327 16.5386 32.4411 16.2309 33.3537 15.9232C33.6578 15.7693 33.962 15.6155 34.2662 15.4616C34.7225 15.1539 35.0267 15.1539 35.1787 15.7693C35.3308 16.5386 35.7871 16.8462 36.3955 16.8462C37.0038 16.8462 37.308 16.5386 37.4601 15.9232C37.6122 15.4616 37.9164 15.3078 38.3727 15.4616C38.6768 15.6155 39.1331 15.7693 39.5894 15.9232C40.3498 16.077 40.8061 16.3847 40.3498 17.3078C40.0457 17.9232 40.5019 18.077 40.8061 18.3847C41.1103 18.8462 41.4145 18.8462 41.8708 18.5386C42.4791 18.077 42.9354 18.3847 43.0875 19.0001C43.2396 19.4616 43.3917 19.7693 43.5438 20.077C43.8479 20.6924 43.8479 21.1539 43.0875 21.3078C42.4791 21.4616 42.4791 21.9232 42.4791 22.5386C42.4791 23.0001 42.6312 23.3078 43.0875 23.4616C43.8479 23.6155 44 24.077 43.6959 24.6924C43.5438 25.1539 43.3917 25.6155 43.2396 25.9232C43.0875 26.5386 42.7833 26.6924 42.1749 26.3847C41.5666 26.077 41.2624 26.2309 40.9582 26.6924C40.5019 27.1539 40.3498 27.4616 40.8061 28.077C41.2624 28.6924 40.9582 29.0001 40.3498 29.1539C39.8936 29.3078 39.5894 29.4616 39.1331 29.6155C38.5248 30.077 38.0685 29.9232 37.7643 29.1539C37.6122 28.6924 37.308 28.5386 36.8518 28.5386C36.3955 28.5386 35.7871 28.5386 35.7871 29.3078C35.635 30.077 35.1787 30.077 34.5704 29.7693C34.2662 29.6155 33.962 29.4616 33.6578 29.4616C32.8974 29.4616 32.4411 29.1539 32.8974 28.3847C33.2016 27.7693 32.7453 27.6155 32.4411 27.3078C32.1369 26.8462 31.8327 26.8462 31.3765 27.1539C30.616 27.7693 30.3118 27.3078 30.1597 26.6924C30.0076 26.3847 29.8556 25.9232 29.7035 25.6155C29.3993 25.0001 29.2472 24.5386 30.1597 24.3847C30.4639 23.9232 30.9202 23.7693 30.616 23.1539ZM39.4373 22.8462C39.4373 21.1539 38.2206 19.9232 36.5476 19.9232C35.0267 19.9232 33.6578 21.1539 33.6578 22.6924C33.6578 24.2309 35.0267 25.6155 36.5476 25.6155C38.0685 25.7693 39.4373 24.5386 39.4373 22.8462Z" fill="#FBC72D"/>
</svg>
